<?xml version="1.0" standalone="no"?><!DOCTYPE svg PUBLIC "-//W3C//DTD SVG 1.1//EN" "http://www.w3.org/Graphics/SVG/1.1/DTD/svg11.dtd"><svg t="1657106903881" class="icon" viewBox="0 0 1024 1024" version="1.1" xmlns="http://www.w3.org/2000/svg" p-id="5878" xmlns:xlink="http://www.w3.org/1999/xlink" width="200" height="200"><defs><style type="text/css">@font-face { font-family: "feedback-iconfont"; src: url("//at.alicdn.com/t/font_1031158_u69w8yhxdu.woff2?t=1630033759944") format("woff2"), url("//at.alicdn.com/t/font_1031158_u69w8yhxdu.woff?t=1630033759944") format("woff"), url("//at.alicdn.com/t/font_1031158_u69w8yhxdu.ttf?t=1630033759944") format("truetype"); }
</style></defs><path d="M499.5072 0c274.5856 0 499.2 224.6144 499.2 499.2s-224.6144 499.2-499.2 499.2c-264.2944 0-481.4848-206.4384-498.176-468.7872l-0.7168-14.1312L0 488.6016h69.888l0.2048 12.544c2.2016 115.2512 45.9776 220.0064 126.8224 300.8512a421.888 421.888 0 0 0 302.592 126.5664 422.0928 422.0928 0 0 0 302.7968-126.7712 421.888 421.888 0 0 0 126.5664-302.592 415.8464 415.8464 0 0 0-117.9136-291.84l-11.1104-10.9568a421.888 421.888 0 0 0-302.592-126.5664 425.984 425.984 0 0 0-257.28 84.992l-13.6192 10.752-7.3216 6.1952 69.5296 11.776-10.5472 67.1232-184.576-28.16 32.8704-200.0384 67.3792 10.6496-13.824 81.5104 11.008-8.8064A502.4768 502.4768 0 0 1 463.872 1.2288l18.7392-0.9728 16.896-0.256z m2.2016 413.0816l130.6624-124.1088 49.152 49.152-95.0784 88.576h71.7824v69.8368l-123.904-0.0512v54.016h123.904v69.8368l-123.904-0.0512 0.0512 159.232H464.5888v-159.232l-121.6 0.0512v-69.8368h121.6V496.4864H342.9888V426.752h71.5264L321.9968 338.0224l48.9984-49.0496L501.76 413.0816z" p-id="5879"></path></svg>