<?xml version="1.0" standalone="no"?><!DOCTYPE svg PUBLIC "-//W3C//DTD SVG 1.1//EN" "http://www.w3.org/Graphics/SVG/1.1/DTD/svg11.dtd"><svg t="1657106865919" class="icon" viewBox="0 0 1072 1024" version="1.1" xmlns="http://www.w3.org/2000/svg" p-id="4947" xmlns:xlink="http://www.w3.org/1999/xlink" width="209.375" height="200"><defs><style type="text/css">@font-face { font-family: "feedback-iconfont"; src: url("//at.alicdn.com/t/font_1031158_u69w8yhxdu.woff2?t=1630033759944") format("woff2"), url("//at.alicdn.com/t/font_1031158_u69w8yhxdu.woff?t=1630033759944") format("woff"), url("//at.alicdn.com/t/font_1031158_u69w8yhxdu.ttf?t=1630033759944") format("truetype"); }
</style></defs><path d="M415.35714307 840.45714277H221.72857138A151.15714278 151.15714278 0 0 1 70.57142862 689.25714277V221.72857138A151.15714278 151.15714278 0 0 1 221.72857138 70.57142862h623.4000003A151.15714278 151.15714278 0 0 1 996.28571445 221.72857138v467.57142862a151.15714278 151.15714278 0 0 1-151.15714277 151.15714278h-180.6000003l-98.48571415 77.91428584a34.28571445 34.28571445 0 0 1-41.31428555 0.9l-109.37142861-78.85714307z m216-61.19999999a34.28571445 34.28571445 0 0 1 21.25714306-7.37142892h192.51428555a82.58571387 82.58571387 0 0 0 82.58571387-82.62857109V221.72857138A82.58571387 82.58571387 0 0 0 845.12857168 139.14285752H221.72857138A82.58571387 82.58571387 0 0 0 139.14285752 221.72857138v467.57142862c0 45.60000029 36.98571445 82.58571387 82.58571386 82.58571387h204.72857139a34.28571445 34.28571445 0 0 1 20.01428614 6.42857168l97.37142802 70.2 87.47142891-69.25714277z" p-id="4948"></path><path d="M287 458.42857138m-53.57142862 0a53.57142862 53.57142862 0 1 0 107.14285724 0 53.57142862 53.57142862 0 1 0-107.14285724 0Z" p-id="4949"></path><path d="M544.14285752 458.42857138m-53.57142861 0a53.57142862 53.57142862 0 1 0 107.14285722 0 53.57142862 53.57142862 0 1 0-107.14285722 0Z" p-id="4950"></path><path d="M801.28571416 458.42857138m-53.57142861 0a53.57142862 53.57142862 0 1 0 107.14285723 0 53.57142862 53.57142862 0 1 0-107.14285723 0Z" p-id="4951"></path></svg>