<?xml version="1.0" standalone="no"?><!DOCTYPE svg PUBLIC "-//W3C//DTD SVG 1.1//EN" "http://www.w3.org/Graphics/SVG/1.1/DTD/svg11.dtd"><svg t="1657106797601" class="icon" viewBox="0 0 1024 1024" version="1.1" xmlns="http://www.w3.org/2000/svg" p-id="2124" xmlns:xlink="http://www.w3.org/1999/xlink" width="200" height="200"><defs><style type="text/css">@font-face { font-family: "feedback-iconfont"; src: url("//at.alicdn.com/t/font_1031158_u69w8yhxdu.woff2?t=1630033759944") format("woff2"), url("//at.alicdn.com/t/font_1031158_u69w8yhxdu.woff?t=1630033759944") format("woff"), url("//at.alicdn.com/t/font_1031158_u69w8yhxdu.ttf?t=1630033759944") format("truetype"); }
</style></defs><path d="M391.809105 95.359858l217.4628 0c5.718235 0 10.354835-5.102205 10.354835-11.395538l0-8.546653c0-6.293333-4.6366-11.395538-10.354835-11.395538l-217.4628 0c-5.719258 0-10.355859 5.102205-10.355859 11.395538l0 8.546653C381.453247 90.257653 386.089847 95.359858 391.809105 95.359858z" p-id="2125"></path><path d="M305.64877 389.746632l389.782448 0c5.718235 0 10.354835-5.102205 10.354835-11.395538l0-8.546653c0-6.293333-4.6366-11.395538-10.354835-11.395538L305.64877 358.408903c-5.719258 0-10.355859 5.102205-10.355859 11.395538l0 8.546653C295.292911 384.644427 299.929512 389.746632 305.64877 389.746632z" p-id="2126"></path><path d="M860.412736 595.754542 860.412736 102.585423c0-20.977777-15.429411-37.986149-34.463929-37.986149L704.581622 64.599274c-10.743692 1.198292-15.273868 14.719236-15.273868 14.719236l-38.392402 69.362764c0 0-2.835581 4.306072-4.256954 5.184069-1.219781 0.7552-4.738931 0.949628-4.738931 0.949628L357.80771 154.814971c0 0-2.674922-0.339738-3.66139-0.949628-0.724501-0.448208-2.591011-2.174526-2.591011-2.174526l-40.058344-72.372308c0 0-4.530177-13.520945-15.272845-14.719236L175.201789 64.599274c-19.033495 0-34.463929 17.007349-34.463929 37.986149l0 754.434541c0 20.9788 15.430434 37.985126 34.463929 37.985126l382.28059 0c-0.002047-0.002047-0.004093-0.004093-0.00614-0.00614 38.684044 39.760562 92.759637 64.470337 152.61691 64.470337 117.593232 0 212.923414-95.329159 212.923414-212.922391C923.016563 687.630043 899.083477 634.304534 860.412736 595.754542zM854.310761 589.918627c-0.218988-0.200568-0.432859-0.406253-0.652869-0.607844C853.878926 589.511351 854.092797 589.717036 854.310761 589.918627zM850.96455 586.902944c-0.287549-0.254803-0.573051-0.512676-0.862647-0.766456C850.391499 586.390267 850.677001 586.648141 850.96455 586.902944zM175.201789 863.667362c-3.325745 0-6.031367-2.982938-6.031367-6.647397L169.170422 102.585423c0-3.665483 2.705622-6.647397 6.031367-6.647397l112.188128 0 39.893592 72.073502 2.424212 4.380774 3.566222 3.300162c3.911076 3.618411 6.048763 4.940522 6.952342 5.499248 1.477654 0.914836 5.973038 3.696182 14.328333 4.755304l1.620917 0.205685 1.63115 0 284.11278 0 0.711198 0 0.710175-0.039909c10.194176-0.562818 15.497972-3.846608 17.225313-4.916986 3.194762-1.974981 7.598049-5.362124 13.358239-14.106276l0.668219-1.017166 0.594541-1.072425 38.22458-69.062935 112.534006 0c3.324722 0 6.031367 2.981914 6.031367 6.647397l0 469.37111c-34.530444-24.153096-76.550467-38.33305-121.886001-38.33305-1.439792 0-2.874467 0.025583-4.307096 0.055259l0-7.184633c0-6.293333-4.6366-11.395538-10.354835-11.395538L305.64877 515.097548c-5.719258 0-10.355859 5.102205-10.355859 11.395538l0 8.546653c0 6.29538 4.6366 11.396561 10.355859 11.396561l331.537905 0c1.38658-0.505513 2.781346-0.995677 4.181229-1.472538-60.281945 20.546965-108.391662 67.375503-130.688481 126.8255L305.64877 671.789263c-5.719258 0-10.355859 5.102205-10.355859 11.395538l0 8.547677c0 6.294356 4.6366 11.395538 10.355859 11.395538l195.95802 0c0.282433-1.363044 0.578168-2.720971 0.887206-4.074805-3.479241 15.273868-5.323239 31.168883-5.323239 47.495734 0 43.278689 12.924357 83.533508 35.107589 117.138884-0.004093-0.00614-0.008186-0.01228-0.01228-0.01842L175.201789 863.669408zM847.305207 583.743998c-0.26606-0.224104-0.530073-0.450255-0.797156-0.673335C846.775134 583.293743 847.039147 583.520917 847.305207 583.743998zM843.547627 580.647473c-0.221034-0.178055-0.441045-0.357134-0.661056-0.533143C843.106582 580.290339 843.326593 580.469418 843.547627 580.647473zM839.734788 577.647139c-0.163729-0.12689-0.328481-0.252757-0.493234-0.379647C839.406307 577.394383 839.571059 577.520249 839.734788 577.647139zM835.868737 574.74402c-0.088004-0.064468-0.176009-0.128937-0.264013-0.192382C835.692728 574.615083 835.780733 574.678528 835.868737 574.74402zM701.857581 533.797445c-0.303922 0.011256-0.608867 0.021489-0.912789 0.033769C701.248713 533.818935 701.553659 533.808702 701.857581 533.797445zM697.232237 534.021549c-0.343831 0.021489-0.686638 0.042979-1.030469 0.064468C696.545598 534.064528 696.888406 534.040992 697.232237 534.021549zM692.459536 534.355147c-0.172939 0.01535-0.344854 0.031722-0.517793 0.046049C692.115706 534.38687 692.287621 534.369473 692.459536 534.355147zM680.063205 535.741727c-0.394996 0.055259-0.789992 0.106424-1.183965 0.164752C679.273213 535.849174 679.668209 535.796986 680.063205 535.741727zM675.686525 536.40483c-0.532119 0.086981-1.063215 0.173962-1.594311 0.265036C674.623309 536.578792 675.154405 536.491811 675.686525 536.40483zM671.063227 537.206078c-0.568958 0.105401-1.133823 0.215918-1.701758 0.325411C669.929404 537.421996 670.495292 537.310456 671.063227 537.206078zM666.400021 538.119891c-0.522909 0.10847-1.041726 0.228197-1.561565 0.339738C665.358295 538.347065 665.877111 538.228361 666.400021 538.119891zM659.509077 539.685549c-0.653893 0.158612-1.308809 0.313132-1.960655 0.478907C658.200268 539.997658 658.856207 539.844162 659.509077 539.685549zM655.051555 540.821419c-0.727571 0.193405-1.454118 0.387833-2.177596 0.589424C653.597437 541.209252 654.323984 541.015847 655.051555 540.821419zM650.470213 542.096459c-0.7552 0.220011-1.509377 0.445138-2.260483 0.673335C648.96186 542.541597 649.715013 542.316469 650.470213 542.096459zM645.903198 543.479969c-0.799202 0.251733-1.595334 0.5137-2.390443 0.775666C644.308887 543.993668 645.103995 543.731702 645.903198 543.479969zM509.358335 675.41586c-0.049119 0.1361-0.097214 0.273223-0.145309 0.409322C509.261121 675.689083 509.309216 675.55196 509.358335 675.41586zM505.630431 686.968987c-0.027629 0.093121-0.057305 0.187265-0.083911 0.280386C505.574149 687.156252 505.602801 687.062108 505.630431 686.968987zM504.702292 690.271196c-0.140193 0.51063-0.278339 1.02126-0.414439 1.532913C504.423953 691.292456 504.562099 690.781826 504.702292 690.271196zM503.572562 694.563966c-0.156566 0.627287-0.309038 1.257643-0.460488 1.886977C503.26557 695.821609 503.414973 695.191252 503.572562 694.563966zM554.005184 891.345748c0.010233 0.011256 0.021489 0.021489 0.030699 0.032746C554.025651 891.36826 554.014394 891.357004 554.005184 891.345748zM535.081183 867.826078c0.00921 0.01228 0.01842 0.024559 0.026606 0.037862C535.098579 867.850637 535.089369 867.838358 535.081183 867.826078zM538.005792 871.933629c0.00921 0.01228 0.01842 0.023536 0.025583 0.035816C538.024212 871.958188 538.015002 871.945909 538.005792 871.933629zM541.023522 875.967502c0.00921 0.013303 0.019443 0.024559 0.028653 0.037862C541.042965 875.992061 541.032732 875.980805 541.023522 875.967502zM544.13028 879.923604c0.01228 0.01535 0.024559 0.029676 0.036839 0.046049C544.155862 879.95328 544.142559 879.938953 544.13028 879.923604zM547.332205 883.808074c0.01228 0.01535 0.024559 0.028653 0.036839 0.044002C547.357787 883.836727 547.344484 883.823424 547.332205 883.808074zM550.624181 887.615796c0.01228 0.014326 0.023536 0.026606 0.035816 0.039909C550.647717 887.642402 550.63646 887.629099 550.624181 887.615796zM838.944795 875.398544c-34.417881 34.416857-80.179111 53.371558-128.851647 53.371558-48.673559 0-94.433766-18.954701-128.851647-53.371558-34.417881-34.417881-53.372581-80.179111-53.372581-128.851647 0-48.673559 18.954701-94.433766 53.372581-128.851647s80.178087-53.372581 128.851647-53.372581c48.672536 0 94.433766 18.954701 128.851647 53.372581s53.372581 80.179111 53.372581 128.851647S873.362676 840.97964 838.944795 875.398544z" p-id="2127"></path><path d="M801.834596 756.008386c8.477069 0 15.349593-6.872524 15.349593-15.349593s-6.872524-15.349593-15.349593-15.349593l-59.743686 0 65.669652-85.421508c5.167696-6.721075 3.906983-16.35755-2.813069-21.524223-6.721075-5.16872-16.358573-3.906983-21.524223 2.813069l-72.494081 94.297666-72.496128-94.297666c-5.166673-6.720052-14.802124-7.981788-21.524223-2.813069-6.720052 5.166673-7.980765 14.803147-2.813069 21.524223l65.671699 85.421508-59.744709 0c-8.477069 0-15.349593 6.872524-15.349593 15.349593s6.872524 15.349593 15.349593 15.349593l75.556836 0 0 33.440623-71.920006 0c-8.477069 0-15.349593 6.872524-15.349593 15.349593s6.872524 15.349593 15.349593 15.349593l71.920006 0 0 57.341986c0 8.477069 6.872524 15.349593 15.349593 15.349593s15.349593-6.872524 15.349593-15.349593l0-57.341986 71.918983 0c8.477069 0 15.349593-6.872524 15.349593-15.349593s-6.872524-15.349593-15.349593-15.349593l-71.918983 0 0-33.440623L801.834596 756.008386z" p-id="2128"></path></svg>