<?xml version="1.0" standalone="no"?><!DOCTYPE svg PUBLIC "-//W3C//DTD SVG 1.1//EN" "http://www.w3.org/Graphics/SVG/1.1/DTD/svg11.dtd"><svg t="1657121483937" class="icon" viewBox="0 0 1024 1024" version="1.1" xmlns="http://www.w3.org/2000/svg" p-id="7485" xmlns:xlink="http://www.w3.org/1999/xlink" width="200" height="200"><defs><style type="text/css">@font-face { font-family: "feedback-iconfont"; src: url("//at.alicdn.com/t/font_1031158_u69w8yhxdu.woff2?t=1630033759944") format("woff2"), url("//at.alicdn.com/t/font_1031158_u69w8yhxdu.woff?t=1630033759944") format("woff"), url("//at.alicdn.com/t/font_1031158_u69w8yhxdu.ttf?t=1630033759944") format("truetype"); }
</style></defs><path d="M814.270402 531.62481h-11.233046c6.957301 11.953861 11.233046 25.665733 11.233046 40.492617v242.966964c0 44.730478-36.260899 80.991377-80.989329 80.991377H287.840786c-44.72843 0-80.989329-36.260899-80.989329-80.991377V572.117427c0-14.826883 4.275745-28.538756 11.233046-40.492617h-11.233046c-44.730478 0-80.989329-36.260899-80.98933-80.991377V410.140816c0-44.730478 36.258851-80.991377 80.98933-80.991377H329.274353l-32.541123-32.612795c-38.757131-38.840066-38.757131-101.817204 0-140.658294s101.595021-38.840066 140.350105 0l72.145007 72.302686c0.46382-0.032764 0.85904-0.269282 1.332075-0.269282 0.032764 0 0.060409 0.01843 0.093174 0.01843l72.623162-72.619067c38.931192-38.931192 102.048603-38.931192 140.979794 0 38.931192 38.927096 38.931192 102.046555 0 140.979794l-32.859551 32.857504h122.872382c44.72843 0 80.989329 36.260899 80.989329 80.991377v40.492617c0.001024 44.731502-36.259875 80.992401-80.988305 80.992401z m-60.741997 323.956293c11.182876 0 20.247332-9.064457 20.247332-20.247332V551.872142c0-11.182876-9.064457-20.247332-20.247332-20.247332H530.808773v323.956293h222.719632z m-506.182284-20.247332c0 11.182876 9.064457 20.247332 20.247333 20.247332h222.719631V531.62481H267.593454c-11.182876 0-20.247332 9.064457-20.247333 20.247332v283.461629z m-40.494664-465.687619c-22.364727 0-40.494665 18.129937-40.494665 40.494664v40.494665c0 22.364727 18.128914 40.494665 40.494665 40.494664h283.461628V369.646152H206.851457z m210.683859-184.065913c-25.025805-25.027853-65.603404-25.027853-90.629209 0-25.027853 25.025805-25.027853 65.601357 0 90.631257l52.941014 52.938967h110.466988v-20.624122c0-31.034988 0.163822-50.004511-18.400243-68.5696l-54.37855-54.376502z m276.68146 90.631257c25.027853-25.029901 25.027853-65.605452 0-90.631257-25.025805-25.027853-65.603404-25.027853-90.62921 0l-54.378549 54.376502c-18.643928 18.643928-18.400243 37.044171-18.400244 68.948438v20.245284h110.466988l52.941015-52.938967zM854.765066 410.140816c0-22.364727-18.128914-40.494665-40.494664-40.494664H530.808773v121.483993h283.461629c22.364727 0 40.494665-18.129937 40.494664-40.494664v-40.494665z" p-id="7486"></path></svg>