<?xml version="1.0" standalone="no"?><!DOCTYPE svg PUBLIC "-//W3C//DTD SVG 1.1//EN" "http://www.w3.org/Graphics/SVG/1.1/DTD/svg11.dtd"><svg t="1657121464632" class="icon" viewBox="0 0 1024 1024" version="1.1" xmlns="http://www.w3.org/2000/svg" p-id="6543" xmlns:xlink="http://www.w3.org/1999/xlink" width="200" height="200"><defs><style type="text/css">@font-face { font-family: "feedback-iconfont"; src: url("//at.alicdn.com/t/font_1031158_u69w8yhxdu.woff2?t=1630033759944") format("woff2"), url("//at.alicdn.com/t/font_1031158_u69w8yhxdu.woff?t=1630033759944") format("woff"), url("//at.alicdn.com/t/font_1031158_u69w8yhxdu.ttf?t=1630033759944") format("truetype"); }
</style></defs><path d="M955.2 901.6h-864c-8.8 0-16-7.2-16-16v-3.2c0-8.8 7.2-16 16-16h864c8.8 0 16 7.2 16 16v3.2c0 8.8-7.2 16-16 16zM579.2 118.4H468V74.4c0-28 22.4-50.4 50.4-50.4h11.2c28 0 50.4 22.4 50.4 50.4v44zM523.2 1000c36.8 0 68-25.6 76-60.8 2.4-8.8-4.8-17.6-13.6-17.6H461.6c-9.6 0-16 8.8-13.6 17.6 7.2 35.2 38.4 60.8 75.2 60.8z" fill="#666666" p-id="6544"></path><path d="M883.2 894.4h-32V489.6c0-180.8-147.2-328-328-328s-328 147.2-328 328v404.8h-32V489.6c0-198.4 161.6-360 360-360s360 161.6 360 360v404.8z" fill="#666666" p-id="6545"></path></svg>