<?xml version="1.0" standalone="no"?><!DOCTYPE svg PUBLIC "-//W3C//DTD SVG 1.1//EN" "http://www.w3.org/Graphics/SVG/1.1/DTD/svg11.dtd"><svg t="1666161515120" class="icon" viewBox="0 0 1024 1024" version="1.1" xmlns="http://www.w3.org/2000/svg" p-id="3913" xmlns:xlink="http://www.w3.org/1999/xlink" width="200" height="200"><path d="M1024 512c0 282.7776-229.2224 512-512 512S0 794.7776 0 512 229.2224 0 512 0s512 229.2224 512 512z" fill="#FFD600" p-id="3914"></path><path d="M791.3728 430.848a40.5504 40.5504 0 0 0-32.3456-26.2656l-146.5216-21.504-63.7184-130.2272A41.3696 41.3696 0 0 0 511.9744 230.4a41.3696 41.3696 0 0 0-36.8128 22.4512l-63.7056 130.2272-146.5344 21.504a40.5504 40.5504 0 0 0-32.4224 26.2784 37.6832 37.6832 0 0 0 9.472 39.552l107.3408 105.7152-24.9216 146.4704a38.4384 38.4384 0 0 0 16.704 38.2208c12.8512 8.6784 29.44 9.5488 43.136 2.2784l127.744-67.7376 127.7952 67.7376a42.0352 42.0352 0 0 0 43.136-2.2784 38.3488 38.3488 0 0 0 16.6528-38.2208L674.6752 576.128l107.4432-105.728a37.8752 37.8752 0 0 0 9.3952-39.552h-0.128z" fill="#FFFFFF" p-id="3915"></path></svg>