<?xml version="1.0" standalone="no"?><!DOCTYPE svg PUBLIC "-//W3C//DTD SVG 1.1//EN" "http://www.w3.org/Graphics/SVG/1.1/DTD/svg11.dtd"><svg t="1657029531390" class="icon" viewBox="0 0 1024 1024" version="1.1" xmlns="http://www.w3.org/2000/svg" p-id="11723" xmlns:xlink="http://www.w3.org/1999/xlink" width="200" height="200"><defs><style type="text/css">@font-face { font-family: "feedback-iconfont"; src: url("//at.alicdn.com/t/font_1031158_u69w8yhxdu.woff2?t=1630033759944") format("woff2"), url("//at.alicdn.com/t/font_1031158_u69w8yhxdu.woff?t=1630033759944") format("woff"), url("//at.alicdn.com/t/font_1031158_u69w8yhxdu.ttf?t=1630033759944") format("truetype"); }
</style></defs><path d="M640 251.733333c-42.666667-17.066667-85.333333-25.6-128-25.6-38.4 0-72.533333 8.533333-102.4 25.6-38.4 21.333333-64 55.466667-68.266667 102.4-8.533333 59.733333 4.266667 115.2 42.666667 162.133334 12.8 12.8 21.333333 25.6 34.133333 42.666666 21.333333 29.866667 29.866667 68.266667 17.066667 102.4-4.266667 25.6-17.066667 46.933333-25.6 68.266667-8.533333 17.066667-12.8 29.866667-17.066667 46.933333-4.266667 21.333333-4.266667 42.666667 0 64 4.266667 29.866667 17.066667 55.466667 38.4 72.533334 25.6 25.6 59.733333 38.4 93.866667 34.133333 46.933333-4.266667 89.6-25.6 119.466667-68.266667 17.066667-25.6 29.866667-51.2 42.666666-76.8 29.866667-72.533333 55.466667-149.333333 72.533334-226.133333 12.8-46.933333 17.066667-93.866667 12.8-140.8 0-8.533333-4.266667-21.333333-4.266667-29.866667-17.066667-68.266667-59.733333-123.733333-128-153.6z m81.066667 209.066667c4.266667 51.2-4.266667 102.4-12.8 140.8-12.8 64-25.6 102.4-51.2 166.4-4.266667 12.8-42.666667 132.266667-136.533334 136.533333-42.666667 4.266667-85.333333-55.466667-85.333333-98.133333 4.266667-72.533333 25.6-93.866667 38.4-128 8.533333-25.6 8.533333-68.266667-4.266667-106.666667-17.066667-42.666667-81.066667-93.866667-76.8-166.4 0-38.4 8.533333-81.066667 55.466667-102.4 68.266667-34.133333 149.333333-12.8 183.466667 4.266667 46.933333 25.6 81.066667 72.533333 89.6 153.6z m-409.6-341.333333c-42.666667-17.066667-85.333333 4.266667-98.133334 46.933333-8.533333 55.466667 21.333333 115.2 72.533334 132.266667 42.666667 12.8 81.066667-8.533333 89.6-55.466667 4.266667-21.333333 4.266667-38.4-4.266667-59.733333-12.8-25.6-29.866667-51.2-59.733333-64z m196.266666-38.4c-21.333333-25.6-55.466667-25.6-76.8 0-29.866667 34.133333-25.6 89.6 4.266667 119.466666 21.333333 21.333333 51.2 21.333333 72.533333-4.266666 17.066667-21.333333 21.333333-42.666667 21.333334-68.266667-4.266667-17.066667-8.533333-34.133333-21.333334-46.933333z m179.2 42.666666c-12.8-25.6-42.666667-34.133333-64-17.066666-29.866667 21.333333-38.4 68.266667-21.333333 98.133333 12.8 21.333333 38.4 29.866667 59.733333 12.8 17.066667-12.8 29.866667-29.866667 29.866667-51.2 4.266667-17.066667 0-29.866667-4.266667-42.666667z m119.466667 93.866667c-8.533333-25.6-34.133333-34.133333-55.466667-21.333333-29.866667 17.066667-42.666667 59.733333-25.6 89.6 12.8 21.333333 34.133333 29.866667 55.466667 17.066666 17.066667-8.533333 25.6-25.6 29.866667-42.666666 0-17.066667 0-29.866667-4.266667-42.666667z m-21.333333 38.4" p-id="11724"></path></svg>