<?xml version="1.0" standalone="no"?><!DOCTYPE svg PUBLIC "-//W3C//DTD SVG 1.1//EN" "http://www.w3.org/Graphics/SVG/1.1/DTD/svg11.dtd"><svg t="1657029545852" class="icon" viewBox="0 0 1024 1024" version="1.1" xmlns="http://www.w3.org/2000/svg" p-id="12028" xmlns:xlink="http://www.w3.org/1999/xlink" width="200" height="200"><defs><style type="text/css">@font-face { font-family: "feedback-iconfont"; src: url("//at.alicdn.com/t/font_1031158_u69w8yhxdu.woff2?t=1630033759944") format("woff2"), url("//at.alicdn.com/t/font_1031158_u69w8yhxdu.woff?t=1630033759944") format("woff"), url("//at.alicdn.com/t/font_1031158_u69w8yhxdu.ttf?t=1630033759944") format("truetype"); }
</style></defs><path d="M828.245333 874.666667h-533.333333a149.504 149.504 0 0 1-149.333333-149.333334V341.333333a149.504 149.504 0 0 1 149.333333-149.333333h533.333333a21.333333 21.333333 0 0 1 0 42.666667h-533.333333a106.752 106.752 0 0 0-106.666667 106.666666v384a106.752 106.752 0 0 0 106.666667 106.666667h533.333333a42.666667 42.666667 0 0 0 42.666667-42.666667v-23.253333a21.333333 21.333333 0 0 1 42.666667 0v23.253333a85.461333 85.461333 0 0 1-85.333334 85.333334z" fill="#757575" p-id="12029"></path><path d="M892.245333 412.117333a21.333333 21.333333 0 0 1-21.333333-21.333333v-28.16a42.666667 42.666667 0 0 0-42.666667-42.666667h-533.333333a21.333333 21.333333 0 0 1 0-42.666666h533.333333a85.461333 85.461333 0 0 1 85.333334 85.333333v28.16a21.333333 21.333333 0 0 1-21.333334 21.333333zM892.245333 704h-192a128 128 0 1 1 0-256h192a64.085333 64.085333 0 0 1 64 64v128a64.085333 64.085333 0 0 1-64 64z m-192-213.333333a85.333333 85.333333 0 1 0 0 170.666666h192a21.376 21.376 0 0 0 21.333334-21.333333v-128a21.376 21.376 0 0 0-21.333334-21.333333z" fill="#757575" p-id="12030"></path><path d="M710.912 597.333333a21.461333 21.461333 0 0 1-10.666667-2.858666 22.314667 22.314667 0 0 1-32-18.474667 32 32 0 0 1 64 0 21.333333 21.333333 0 0 1-21.333333 21.333333z" fill="#757575" p-id="12031"></path><path d="M700.245333 608a32.042667 32.042667 0 0 1-32-32 22.357333 22.357333 0 0 1 32-18.517333 22.314667 22.314667 0 0 1 32 18.517333 32.042667 32.042667 0 0 1-32 32z" fill="#757575" p-id="12032"></path></svg>