<?xml version="1.0" standalone="no"?><!DOCTYPE svg PUBLIC "-//W3C//DTD SVG 1.1//EN" "http://www.w3.org/Graphics/SVG/1.1/DTD/svg11.dtd"><svg t="1649857198652" class="icon" viewBox="0 0 1024 1024" version="1.1" xmlns="http://www.w3.org/2000/svg" p-id="1465" xmlns:xlink="http://www.w3.org/1999/xlink" width="200" height="200"><defs><style type="text/css">@font-face { font-family: "feedback-iconfont"; src: url("//at.alicdn.com/t/font_1031158_u69w8yhxdu.woff2?t=1630033759944") format("woff2"), url("//at.alicdn.com/t/font_1031158_u69w8yhxdu.woff?t=1630033759944") format("woff"), url("//at.alicdn.com/t/font_1031158_u69w8yhxdu.ttf?t=1630033759944") format("truetype"); }
</style></defs><path d="M906.410667 434.858667v265.329777c0 51.2-37.603556 91.875556-82.944 91.875556H200.533333c-45.340444 0-82.944-40.675556-82.944-91.875556V210.033778c0-51.2 37.603556-91.875556 82.944-91.875556h631.637334c29.696 0 56.661333 19.740444 68.266666 50.119111a30.264889 30.264889 0 1 0 52.280889 8.533334 30.947556 30.947556 0 0 0 4.209778-30.72C936.448 92.842667 887.580444 56.888889 832.170667 56.888889H200.533333C120.718222 56.888889 56.888889 125.952 56.888889 210.033778v490.154666C56.888889 784.270222 120.718222 853.333333 200.533333 853.333333h622.933334C903.281778 853.333333 967.111111 784.270222 967.111111 700.188444V434.858667a30.435556 30.435556 0 0 0-30.321778-30.549334 30.549333 30.549333 0 0 0-30.378666 30.549334zM377.173333 604.615111c3.356444 11.548444 14.222222 20.024889 27.306667 21.048889a31.687111 31.687111 0 0 0 30.833778-16.213333l112.753778-220.16L631.466667 484.465778a31.857778 31.857778 0 0 0 22.584889 10.581333 32.312889 32.312889 0 0 0 23.722666-8.419555l166.172445-153.543112a26.737778 26.737778 0 0 0 8.305777-27.591111 30.037333 30.037333 0 0 0-22.186666-20.195555 33.223111 33.223111 0 0 0-30.208 7.793778l-141.767111 130.958222-92.842667-105.927111a32.597333 32.597333 0 0 0-27.875556-10.467556 30.947556 30.947556 0 0 0-24.462222 16.213333L415.288889 514.503111l-30.264889-105.358222a29.696 29.696 0 0 0-20.707556-19.911111 33.336889 33.336889 0 0 0-29.411555 5.461333L181.134222 513.934222a26.737778 26.737778 0 0 0-3.128889 39.651556 32.995556 32.995556 0 0 0 43.178667 3.697778L337.578667 467.057778l39.594666 137.557333zM265.443556 967.111111h493.112888c20.821333 0 37.888-12.8 37.888-28.444444 0-15.758222-17.066667-28.444444-37.888-28.444445H265.443556C244.622222 910.222222 227.555556 923.022222 227.555556 938.666667s17.066667 28.444444 37.888 28.444444z" fill="#33353B" p-id="1466"></path></svg>