<?xml version="1.0" standalone="no"?><!DOCTYPE svg PUBLIC "-//W3C//DTD SVG 1.1//EN" "http://www.w3.org/Graphics/SVG/1.1/DTD/svg11.dtd"><svg t="1666410916579" class="icon" viewBox="0 0 1170 1024" version="1.1" xmlns="http://www.w3.org/2000/svg" p-id="7559" xmlns:xlink="http://www.w3.org/1999/xlink" width="228.515625" height="200"><path d="M950.162286 732.891429l204.544 148.955428a36.571429 36.571429 0 0 1 8.118857 51.017143l-17.554286 24.283429a36.571429 36.571429 0 0 1-51.2 8.118857l-199.899428-145.590857A489.691429 489.691429 0 0 1 512 1002.605714C241.042286 1002.605714 21.394286 782.957714 21.394286 512 21.394286 241.042286 241.042286 21.394286 512 21.394286 782.957714 21.394286 1002.605714 241.042286 1002.605714 512c0 79.469714-18.907429 154.514286-52.443428 220.891429zM512 899.108571c213.796571 0 387.108571-173.348571 387.108571-387.108571 0-213.796571-173.348571-387.108571-387.108571-387.108571C298.203429 124.891429 124.891429 298.24 124.891429 512c0 213.796571 173.348571 387.108571 387.108571 387.108571z" fill="#fb7299" p-id="7560"></path></svg>