<?xml version="1.0" standalone="no"?><!DOCTYPE svg PUBLIC "-//W3C//DTD SVG 1.1//EN" "http://www.w3.org/Graphics/SVG/1.1/DTD/svg11.dtd"><svg t="1649857189381" class="icon" viewBox="0 0 1024 1024" version="1.1" xmlns="http://www.w3.org/2000/svg" p-id="1324" xmlns:xlink="http://www.w3.org/1999/xlink" width="200" height="200"><defs><style type="text/css">@font-face { font-family: "feedback-iconfont"; src: url("//at.alicdn.com/t/font_1031158_u69w8yhxdu.woff2?t=1630033759944") format("woff2"), url("//at.alicdn.com/t/font_1031158_u69w8yhxdu.woff?t=1630033759944") format("woff"), url("//at.alicdn.com/t/font_1031158_u69w8yhxdu.ttf?t=1630033759944") format("truetype"); }
</style></defs><path d="M926.151111 477.240889a56.888889 56.888889 0 0 1 52.906667 77.880889l-115.484445 290.759111a56.888889 56.888889 0 0 1-52.906666 35.896889h-17.408v3.185778H135.964444A79.075556 79.075556 0 0 1 57.230222 813.511111L56.888889 805.944889V249.685333c0-41.073778 31.288889-74.808889 71.395555-78.677333L135.964444 170.666667h192.284445c17.578667 0 34.531556 5.859556 48.298667 16.497777l6.599111 5.688889L458.524444 265.557333a22.129778 22.129778 0 0 0 11.150223 5.802667l4.209777 0.398222h319.374223c41.073778 0 74.865778 31.288889 78.677333 71.395556l0.341333 7.623111v126.407111h53.873778z m0 56.888889H285.127111L180.622222 824.888889H810.666667l115.484444-290.759111z m-110.762667-183.296a22.129778 22.129778 0 0 0-17.635555-21.674667l-4.494222-0.455111H473.884444c-17.521778 0-34.474667-5.859556-48.241777-16.497778l-6.599111-5.688889L343.608889 233.813333a22.129778 22.129778 0 0 0-11.150222-5.802666L328.248889 227.555556H135.907556a22.129778 22.129778 0 0 0-21.674667 17.635555L113.777778 249.742222v556.259556c0 7.736889 3.982222 14.506667 9.955555 18.488889 0-6.087111 1.137778-12.629333 3.356445-18.773334L231.537778 514.844444a56.888889 56.888889 0 0 1 53.475555-37.660444h530.318223V350.833778z" fill="#33353B" p-id="1325"></path></svg>