<?xml version="1.0" standalone="no"?><!DOCTYPE svg PUBLIC "-//W3C//DTD SVG 1.1//EN" "http://www.w3.org/Graphics/SVG/1.1/DTD/svg11.dtd"><svg t="1649857116034" class="icon" viewBox="0 0 1024 1024" version="1.1" xmlns="http://www.w3.org/2000/svg" p-id="1044" xmlns:xlink="http://www.w3.org/1999/xlink" width="200" height="200"><defs><style type="text/css">@font-face { font-family: "feedback-iconfont"; src: url("//at.alicdn.com/t/font_1031158_u69w8yhxdu.woff2?t=1630033759944") format("woff2"), url("//at.alicdn.com/t/font_1031158_u69w8yhxdu.woff?t=1630033759944") format("woff"), url("//at.alicdn.com/t/font_1031158_u69w8yhxdu.ttf?t=1630033759944") format("truetype"); }
</style></defs><path d="M946.289778 459.320889L564.792889 78.449778c-28.785778-28.728889-76.8-28.728889-103.196445 0L77.710222 459.320889c-21.617778 21.560889-26.396444 52.679111-14.392889 79.075555 11.946667 26.282667 36.010667 45.511111 67.128889 45.511112h38.456889v285.013333c0 55.068444 43.178667 98.190222 98.360889 98.190222h489.472c55.182222 0 98.417778-43.121778 98.417778-98.190222v-91.022222c0-14.392889-9.671111-23.950222-24.064-23.950223s-23.950222 9.557333-23.950222 23.893334v91.022222a50.631111 50.631111 0 0 1-50.403556 50.346667h-91.192889v-244.337778c0-14.336-9.557333-23.893333-23.950222-23.893333H382.407111c-14.392889 0-23.950222 9.557333-23.950222 23.893333v244.337778H267.264a50.631111 50.631111 0 0 1-50.403556-50.289778V559.900444c0-14.392889-9.557333-23.893333-23.950222-23.893333H130.503111c-16.782222 0-21.617778-12.003556-24.007111-16.839111-2.389333-4.778667-4.778667-16.725333 4.835556-28.728889l383.886222-378.481778a26.168889 26.168889 0 0 1 35.953778 0l381.496888 380.871111c12.003556 11.946667 7.224889 23.950222 4.835556 28.728889-2.389333 4.835556-7.224889 16.782222-24.007111 16.782223H831.146667c-14.392889 0-23.950222 9.614222-23.950223 23.950222v100.636444c0 14.336 9.557333 23.893333 23.950223 23.893334 14.449778 0 24.007111-9.557333 24.007111-23.893334v-79.075555h38.4c31.175111 0 55.182222-16.782222 67.185778-45.511111 11.946667-26.339556 7.224889-57.457778-14.392889-79.075556z m-539.875556 239.502222h213.560889v220.387556H406.414222v-220.387556z" fill="#33353B" p-id="1045"></path></svg>