<?xml version="1.0" standalone="no"?><!DOCTYPE svg PUBLIC "-//W3C//DTD SVG 1.1//EN" "http://www.w3.org/Graphics/SVG/1.1/DTD/svg11.dtd"><svg t="1666361156200" class="icon" viewBox="0 0 1024 1024" version="1.1" xmlns="http://www.w3.org/2000/svg" p-id="4188" xmlns:xlink="http://www.w3.org/1999/xlink" width="200" height="200"><path d="M94.479059 304.790588a33.761882 33.761882 0 0 0-12.528941 49.874824c55.808 77.974588 188.897882 268.528941 429.839058 268.528941s374.061176-190.554353 429.869177-268.528941a33.792 33.792 0 0 0-12.528941-49.874824 33.731765 33.731765 0 0 0-42.164706 9.908706c-49.061647 65.295059-164.352 248.259765-375.17553 248.259765-210.823529 0-326.083765-182.964706-375.115294-248.259765a33.731765 33.731765 0 0 0-42.164706-9.938823" fill="#707070" p-id="4189"></path><path d="M100.472471 541.876706c-12.408471-10.992941-13.552941-30.117647-2.56-42.526118l59.934117-67.614117c10.992941-12.348235 30.117647-13.552941 42.465883-2.56 12.438588 10.992941 13.613176 30.117647 2.590117 42.526117l-59.934117 67.614118c-10.962824 12.378353-30.117647 13.552941-42.496 2.56M256 676.532706a30.208 30.208 0 0 1-11.053176-41.140706l45.17647-78.245647c8.282353-14.336 26.804706-19.275294 41.140706-11.023059 14.336 8.282353 19.305412 26.804706 11.023059 41.140706l-45.176471 78.245647c-8.282353 14.336-26.804706 19.305412-41.140706 11.023059M923.346824 541.876706c12.408471-10.992941 13.552941-30.117647 2.56-42.526118l-59.934118-67.614117c-10.992941-12.348235-30.117647-13.552941-42.465882-2.56-12.438588 10.992941-13.613176 30.117647-2.590118 42.526117l59.934118 67.614118c10.962824 12.378353 30.117647 13.552941 42.496 2.56M783.058824 676.532706c14.305882-8.282353 19.275294-26.804706 10.992941-41.140706l-45.176471-78.245647a30.208 30.208 0 0 0-41.140706-11.023059c-14.336 8.282353-19.275294 26.804706-11.023059 41.140706l45.176471 78.245647c8.282353 14.336 26.804706 19.305412 41.140706 11.023059M511.819294 743.634824c-16.564706 0-30.117647-13.552941-30.117647-30.117648v-90.352941c0-16.564706 13.552941-30.117647 30.117647-30.117647s30.117647 13.552941 30.117647 30.117647v90.352941c0 16.564706-13.552941 30.117647-30.117647 30.117648" fill="#707070" p-id="4190"></path><path d="M0 0h1024v1024H0z" fill="#707070" fill-opacity="0" p-id="4191"></path></svg>